<svg width="518" height="70" viewBox="0 0 518 70" fill="none" xmlns="http://www.w3.org/2000/svg">
<path d="M517.829 56.2383C517.829 60.75 516.395 64.166 513.526 66.4863C510.69 68.8066 506.485 69.9668 500.91 69.9668C498.654 69.9668 496.156 69.7251 493.417 69.2417C490.71 68.7905 488.583 68.2749 487.036 67.6948V56.5283H489.211L491.58 62.8608C493.997 65.0522 497.139 66.1479 501.006 66.1479C507.258 66.1479 510.384 63.4731 510.384 58.1235C510.384 54.1919 507.919 51.3882 502.988 49.7124L498.686 48.3105C495.431 47.2471 493.062 46.1675 491.58 45.0718C490.098 43.9761 488.954 42.6387 488.148 41.0596C487.342 39.4482 486.939 37.5146 486.939 35.2588C486.939 31.2627 488.293 28.1206 491 25.8325C493.739 23.5122 497.429 22.3521 502.07 22.3521C505.389 22.3521 509.546 22.8516 514.542 23.8506V33.7603H512.27L510.239 28.4912C508.531 26.9766 505.84 26.2192 502.167 26.2192C499.556 26.2192 497.558 26.8638 496.172 28.1528C494.819 29.4419 494.142 31.1821 494.142 33.3735C494.142 35.2104 494.754 36.7573 495.979 38.0142C497.236 39.271 499.121 40.3184 501.635 41.1562C506.372 42.7676 509.466 43.9438 510.916 44.6851C512.366 45.4263 513.591 46.3447 514.59 47.4404C515.621 48.5039 516.411 49.7285 516.958 51.1143C517.539 52.5 517.829 54.208 517.829 56.2383Z" fill="black"/>
<path d="M471.471 69.9668C468.377 69.9668 466.057 69.0483 464.51 67.2114C462.995 65.3745 462.238 62.7964 462.238 59.4771V27.6211H456.292V25.4458L462.334 23.5605L467.217 13.2642H470.262V23.5605H480.655V27.6211H470.262V58.6069C470.262 60.7017 470.729 62.2808 471.664 63.3442C472.631 64.4077 473.888 64.9395 475.435 64.9395C477.304 64.9395 479.576 64.6816 482.25 64.166V67.3081C481.123 68.0815 479.495 68.71 477.368 69.1934C475.241 69.709 473.275 69.9668 471.471 69.9668Z" fill="black"/>
<path d="M452.231 66.2446C450.652 67.4048 448.477 68.3232 445.706 69C442.934 69.6445 440.098 69.9668 437.198 69.9668C422.47 69.9668 415.106 61.9585 415.106 45.9419C415.106 38.3687 416.976 32.5518 420.714 28.4912C424.484 24.3984 429.866 22.3521 436.859 22.3521C441.21 22.3521 445.963 22.8516 451.12 23.8506V36.5156H448.461L446.382 28.4912C443.708 26.9766 440.501 26.2192 436.763 26.2192C428.126 26.2192 423.808 32.7935 423.808 45.9419C423.808 52.7739 425.113 57.6562 427.723 60.5889C430.366 63.4893 434.442 64.9395 439.953 64.9395C444.658 64.9395 448.751 64.4077 452.231 63.3442V66.2446Z" fill="black"/>
<path d="M376.966 56.0449C376.966 61.5879 379.544 64.3594 384.701 64.3594C388.697 64.3594 392.435 63.8599 395.916 62.8608V26.9443L389.051 25.7358V23.5605H403.892V65.6162L409.644 66.8247V69H396.399L396.012 65.3262C393.724 66.583 391.082 67.6787 388.084 68.6133C385.087 69.5156 382.574 69.9668 380.543 69.9668C372.809 69.9668 368.942 65.5195 368.942 56.625V26.9443L363.141 25.7358V23.5605H376.966V56.0449Z" fill="black"/>
<path d="M347.286 65.6162C343.644 68.5166 339.39 69.9668 334.524 69.9668C322.117 69.9668 315.913 62.2163 315.913 46.7153C315.913 38.7554 317.669 32.7129 321.182 28.5879C324.695 24.4307 329.867 22.3521 336.699 22.3521C340.18 22.3521 343.708 22.7227 347.286 23.4639C347.092 22.4004 346.996 19.7256 346.996 15.4395V3.64453L339.358 2.48438V0.309082H355.02V65.6162L360.627 66.8247V69H347.866L347.286 65.6162ZM324.614 46.7153C324.614 52.8384 325.646 57.4146 327.708 60.4438C329.771 63.4409 332.929 64.9395 337.183 64.9395C340.824 64.9395 344.095 64.311 346.996 63.0542V27.1377C344.127 26.5898 340.856 26.3159 337.183 26.3159C328.804 26.3159 324.614 33.1157 324.614 46.7153Z" fill="black"/>
<path d="M308.565 46.0386C308.565 61.9907 301.476 69.9668 287.296 69.9668C280.464 69.9668 275.308 67.9204 271.827 63.8276C268.347 59.7349 266.606 53.8052 266.606 46.0386C266.606 38.3687 268.347 32.5034 271.827 28.4429C275.308 24.3823 280.593 22.3521 287.683 22.3521C294.579 22.3521 299.784 24.3501 303.296 28.3462C306.809 32.3101 308.565 38.2075 308.565 46.0386ZM299.864 46.0386C299.864 39.0776 298.849 34.0342 296.819 30.9082C294.789 27.7822 291.614 26.2192 287.296 26.2192C283.074 26.2192 280.013 27.7178 278.111 30.7148C276.242 33.7119 275.308 38.8198 275.308 46.0386C275.308 53.354 276.258 58.5425 278.16 61.604C280.093 64.6333 283.139 66.1479 287.296 66.1479C291.55 66.1479 294.708 64.5688 296.771 61.4106C298.833 58.2524 299.864 53.1284 299.864 46.0386Z" fill="black"/>
<path d="M261.966 22.3521V34.6304H259.887L257.083 29.313C255.472 29.313 253.555 29.5386 251.331 29.9897C249.14 30.4087 247.238 30.9727 245.627 31.6816V65.6162L253.41 66.8247V69H231.85V66.8247L237.603 65.6162V26.9443L231.85 25.7358V23.5605H245.095L245.53 29.2163C247.464 27.605 250.074 26.0581 253.361 24.5757C256.681 23.0933 259.307 22.3521 261.241 22.3521H261.966Z" fill="black"/>
<path d="M216.236 23.3672C216.236 18.0498 214.996 14.2471 212.514 11.959C210.033 9.6709 205.859 8.52686 199.994 8.52686H195.257V39.2227H200.284C205.73 39.2227 209.743 37.9819 212.321 35.5005C214.931 33.019 216.236 28.9746 216.236 23.3672ZM195.257 43.5732V65.1328L205.553 66.438V69H178.241V66.438L185.927 65.1328V7.99512L177.613 6.73828V4.17627H202.073C217.928 4.17627 225.856 10.541 225.856 23.2705C225.856 29.9092 223.842 34.9526 219.813 38.4009C215.817 41.8491 210.065 43.5732 202.556 43.5732H195.257Z" fill="black"/>
<path d="M149.141 22.3521V34.6304H147.062L144.258 29.313C142.647 29.313 140.729 29.5386 138.506 29.9897C136.314 30.4087 134.413 30.9727 132.802 31.6816V65.6162L140.584 66.8247V69H119.025V66.8247L124.777 65.6162V26.9443L119.025 25.7358V23.5605H132.27L132.705 29.2163C134.639 27.605 137.249 26.0581 140.536 24.5757C143.855 23.0933 146.482 22.3521 148.416 22.3521H149.141Z" fill="black"/>
<path d="M82.6733 56.0449C82.6733 61.5879 85.2515 64.3594 90.4077 64.3594C94.4038 64.3594 98.1421 63.8599 101.623 62.8608V26.9443L94.7583 25.7358V23.5605H109.599V65.6162L115.351 66.8247V69H102.106L101.719 65.3262C99.4312 66.583 96.7886 67.6787 93.7915 68.6133C90.7944 69.5156 88.2808 69.9668 86.2505 69.9668C78.5161 69.9668 74.6489 65.5195 74.6489 56.625V26.9443L68.8481 25.7358V23.5605H82.6733V56.0449Z" fill="black"/>
<path d="M10.1636 36.5156C10.1636 46.9248 11.9038 54.4658 15.3843 59.1387C18.8647 63.8115 24.311 66.1479 31.7231 66.1479C39.103 66.1479 44.5493 63.8115 48.062 59.1387C51.5747 54.4658 53.3311 46.9248 53.3311 36.5156C53.3311 26.1709 51.5747 18.7266 48.062 14.1826C44.5815 9.60645 39.1353 7.31836 31.7231 7.31836C24.2788 7.31836 18.8164 9.60645 15.3359 14.1826C11.8877 18.7266 10.1636 26.1709 10.1636 36.5156ZM0.0605469 36.5156C0.0605469 14.4727 10.6147 3.45117 31.7231 3.45117C42.1646 3.45117 50.0601 6.25488 55.4097 11.8623C60.7593 17.4375 63.4341 25.6553 63.4341 36.5156C63.4341 47.5371 60.7271 55.8677 55.313 61.5073C49.8989 67.147 42.0356 69.9668 31.7231 69.9668C21.4429 69.9668 13.5957 67.1631 8.18164 61.5557C2.76758 55.916 0.0605469 47.5693 0.0605469 36.5156Z" fill="black"/>
</svg>
